<?xml version="1.0" encoding="UTF-8" standalone="no"?>
<svg
   viewBox="0 0 64 64"
   version="1.1"
   id="svg1"
   width="64"
   height="64"
   sodipodi:docname="github64-white.svg"
   inkscape:version="1.3.2 (091e20e, 2023-11-25, custom)"
   xmlns:inkscape="http://www.inkscape.org/namespaces/inkscape"
   xmlns:sodipodi="http://sodipodi.sourceforge.net/DTD/sodipodi-0.dtd"
   xmlns="http://www.w3.org/2000/svg"
   xmlns:svg="http://www.w3.org/2000/svg">
  <sodipodi:namedview
     id="namedview1"
     pagecolor="#505050"
     bordercolor="#ffffff"
     borderopacity="1"
     inkscape:showpageshadow="0"
     inkscape:pageopacity="0"
     inkscape:pagecheckerboard="1"
     inkscape:deskcolor="#505050"
     inkscape:zoom="12.703125"
     inkscape:cx="31.96064"
     inkscape:cy="32"
     inkscape:window-width="1920"
     inkscape:window-height="1009"
     inkscape:window-x="-8"
     inkscape:window-y="1072"
     inkscape:window-maximized="1"
     inkscape:current-layer="svg1" />
  <defs
     id="defs1" />
  <!--!Font Awesome Free 6.5.1 by @fontawesome - https://fontawesome.com License - https://fontawesome.com/license/free Copyright 2024 Fonticons, Inc.-->
  <path
     d="m 21.406452,51.532706 c 0,0.264678 -0.296784,0.47642 -0.67097,0.47642 -0.425806,0.0397 -0.722578,-0.17204 -0.722578,-0.47642 0,-0.264678 0.296784,-0.47642 0.670966,-0.47642 0.387098,-0.0397 0.722582,0.17204 0.722582,0.47642 z m -4.012904,-0.595524 c -0.09031,0.264678 0.167752,0.569056 0.55484,0.64846 0.335485,0.13234 0.722582,0 0.800002,-0.264678 0.07741,-0.264678 -0.167752,-0.569056 -0.55484,-0.688162 -0.335485,-0.09264 -0.709679,0.0397 -0.800002,0.30438 z m 5.703226,-0.224976 c -0.374194,0.09264 -0.63226,0.34408 -0.593546,0.64846 0.03868,0.264678 0.374194,0.436718 0.761288,0.34408 0.374194,-0.09264 0.63226,-0.34408 0.593546,-0.608758 -0.03868,-0.251444 -0.387094,-0.423484 -0.761288,-0.383782 z M 31.587094,0 C 13.690322,0 0,13.93527 0,32.290654 0,46.96702 9.0064516,59.525966 21.870968,63.94608 c 1.651612,0.30438 2.23226,-0.741096 2.23226,-1.601298 0,-0.8205 -0.0387,-5.346486 -0.0387,-8.1256 0,0 -9.032257,1.985082 -10.929032,-3.943694 0,0 -1.470967,-3.851058 -3.5870964,-4.843598 0,0 -2.9548384,-2.077718 0.2064398,-2.038016 0,0 3.2129036,0.264678 4.9806446,3.41434 2.825806,5.108274 7.56129,3.639314 9.406452,2.76588 0.296784,-2.11742 1.135484,-3.58638 2.064518,-4.459816 -7.212904,-0.8205 -14.490323,-1.892444 -14.490323,-14.623432 0,-3.639316 0.980644,-5.46559 3.045161,-7.794752 -0.335494,-0.860202 -1.432267,-4.40688 0.335472,-8.9858 C 17.793548,12.850092 24,17.28344 24,17.28344 c 2.580648,-0.741098 5.354838,-1.12488 8.103224,-1.12488 2.748372,0 5.522582,0.383782 8.103226,1.12488 0,0 6.206452,-4.446582 8.903228,-3.573146 1.767738,4.592154 0.670976,8.125598 0.335474,8.9858 2.06452,2.342396 3.329032,4.16867 3.329032,7.794752 0,12.770688 -7.6,13.789698 -14.812904,14.623432 1.187104,1.045476 2.193552,3.030556 2.193552,6.140518 0,4.459814 -0.03868,9.97834 -0.03868,11.063518 0,0.860202 0.593536,1.905678 2.23227,1.601298 C 55.251612,59.525966 64,46.96702 64,32.290654 64,13.93527 49.48387,0 31.587094,0 Z M 12.541935,45.643632 c -0.167752,0.13234 -0.129032,0.436718 0.09031,0.688162 0.20644,0.211742 0.503227,0.304378 0.670966,0.13234 0.167752,-0.13234 0.129032,-0.436718 -0.09031,-0.68816 -0.20644,-0.211742 -0.503227,-0.30438 -0.670969,-0.13234 z m -1.393548,-1.071944 c -0.09031,0.17204 0.03872,0.383782 0.296784,0.516122 0.20644,0.13234 0.464517,0.09264 0.55484,-0.09264 0.09031,-0.17204 -0.03872,-0.383782 -0.296784,-0.51612 -0.258065,-0.0794 -0.464517,-0.0397 -0.55484,0.09264 z m 4.180645,4.71126 c -0.20644,0.17204 -0.129032,0.569056 0.167752,0.8205 0.296784,0.30438 0.670969,0.34408 0.838709,0.13234 0.167752,-0.17204 0.09031,-0.569056 -0.167752,-0.8205 -0.283878,-0.304378 -0.670969,-0.34408 -0.838709,-0.13234 z m -1.470967,-1.94538 c -0.20644,0.13234 -0.20644,0.47642 0,0.780798 0.20644,0.30438 0.55484,0.436718 0.722582,0.30438 0.20644,-0.17204 0.20644,-0.516122 0,-0.8205 -0.180658,-0.30438 -0.51613,-0.436718 -0.722582,-0.264678 z"
     id="path1"
     style="stroke-width:0.130675;fill:#ffffff" />
</svg>
