<?xml version="1.0" encoding="UTF-8" standalone="no"?>
<svg
   viewBox="0 0 128 128"
   version="1.1"
   id="svg1"
   sodipodi:docname="github128.svg"
   width="128"
   height="128"
   inkscape:version="1.3.2 (091e20e, 2023-11-25, custom)"
   xmlns:inkscape="http://www.inkscape.org/namespaces/inkscape"
   xmlns:sodipodi="http://sodipodi.sourceforge.net/DTD/sodipodi-0.dtd"
   xmlns="http://www.w3.org/2000/svg"
   xmlns:svg="http://www.w3.org/2000/svg">
  <defs
     id="defs1" />
  <sodipodi:namedview
     id="namedview1"
     pagecolor="#505050"
     bordercolor="#ffffff"
     borderopacity="1"
     inkscape:showpageshadow="0"
     inkscape:pageopacity="0"
     inkscape:pagecheckerboard="1"
     inkscape:deskcolor="#505050"
     inkscape:zoom="1.5878906"
     inkscape:cx="248.12792"
     inkscape:cy="247.81304"
     inkscape:window-width="1920"
     inkscape:window-height="1009"
     inkscape:window-x="-8"
     inkscape:window-y="1072"
     inkscape:window-maximized="1"
     inkscape:current-layer="svg1" />
  <!--!Font Awesome Free 6.5.1 by @fontawesome - https://fontawesome.com License - https://fontawesome.com/license/free Copyright 2024 Fonticons, Inc.-->
  <path
     d="m 42.812904,103.06541 c 0,0.52936 -0.593568,0.95284 -1.34194,0.95284 -0.851612,0.0794 -1.445156,-0.34408 -1.445156,-0.95284 0,-0.52935 0.593568,-0.95284 1.341932,-0.95284 0.774196,-0.0794 1.445164,0.34408 1.445164,0.95284 z m -8.025808,-1.19105 c -0.18062,0.52936 0.335504,1.13812 1.10968,1.29692 0.67097,0.26468 1.445164,0 1.600004,-0.52935 0.15482,-0.52936 -0.335504,-1.13811 -1.10968,-1.37633 -0.67097,-0.18528 -1.419358,0.0794 -1.600004,0.60876 z m 11.406452,-0.44995 c -0.748388,0.18528 -1.26452,0.68816 -1.187092,1.29692 0.07736,0.52936 0.748388,0.87344 1.522576,0.68816 0.748388,-0.18528 1.26452,-0.68816 1.187092,-1.21751 -0.07736,-0.50289 -0.774188,-0.84697 -1.522576,-0.76757 z M 63.174188,0 C 27.380644,0 0,27.87054 0,64.581308 0,93.93404 18.012903,119.05193 43.741936,127.89216 c 3.303224,0.60876 4.46452,-1.48219 4.46452,-3.2026 0,-1.641 -0.0774,-10.69297 -0.0774,-16.2512 0,0 -18.064514,3.97017 -21.858064,-7.88738 0,0 -2.941934,-7.70212 -7.174193,-9.6872 0,0 -5.909677,-4.155436 0.41288,-4.076032 0,0 6.425807,0.529356 9.961289,6.82868 5.651612,10.216552 15.12258,7.278632 18.812904,5.53176 0.593568,-4.23484 2.270968,-7.17276 4.129036,-8.919632 -14.425808,-1.641 -28.980646,-3.784888 -28.980646,-29.246864 0,-7.278632 1.961288,-10.93118 6.090322,-15.589504 -0.670988,-1.720404 -2.864534,-8.81376 0.670944,-17.9716 C 35.587096,25.700184 48,34.56688 48,34.56688 c 5.161296,-1.482196 10.709676,-2.24976 16.206448,-2.24976 5.496744,0 11.045164,0.767564 16.206452,2.24976 0,0 12.412904,-8.893164 17.806456,-7.146292 3.535474,9.184308 1.341952,16.251196 0.670948,17.9716 4.129036,4.684792 6.658066,8.33734 6.658066,15.589504 0,25.541376 -15.200002,27.579396 -29.62581,29.246864 2.374208,2.090952 4.387104,6.061112 4.387104,12.281034 0,8.91963 -0.07736,19.95668 -0.07736,22.12704 0,1.7204 1.187072,3.81135 4.46454,3.20259 C 110.50322,119.05193 128,93.93404 128,64.581308 128,27.87054 98.96774,0 63.174188,0 Z M 25.08387,91.287264 c -0.335504,0.26468 -0.258064,0.873436 0.18062,1.376324 0.41288,0.423484 1.006454,0.608756 1.341932,0.26468 0.335504,-0.26468 0.258064,-0.873436 -0.18062,-1.37632 -0.41288,-0.423484 -1.006454,-0.60876 -1.341938,-0.26468 z m -2.787096,-2.143888 c -0.18062,0.34408 0.07744,0.767564 0.593568,1.032244 0.41288,0.26468 0.929034,0.18528 1.10968,-0.18528 0.18062,-0.34408 -0.07744,-0.767564 -0.593568,-1.03224 -0.51613,-0.1588 -0.929034,-0.0794 -1.10968,0.18528 z m 8.36129,9.42252 c -0.41288,0.34408 -0.258064,1.138112 0.335504,1.641004 0.593568,0.60876 1.341938,0.68816 1.677418,0.26468 0.335504,-0.34408 0.18062,-1.138116 -0.335504,-1.641004 -0.567756,-0.608756 -1.341938,-0.68816 -1.677418,-0.26468 z m -2.941934,-3.89076 c -0.41288,0.26468 -0.41288,0.95284 0,1.561596 0.41288,0.60876 1.10968,0.873436 1.445164,0.60876 0.41288,-0.34408 0.41288,-1.032244 0,-1.641 -0.361316,-0.60876 -1.03226,-0.873436 -1.445164,-0.529356 z"
     id="path1"
     style="stroke-width:0.26135;fill:#ffffff" />
</svg>
