<?xml version="1.0" encoding="UTF-8" standalone="no"?>
<svg
   viewBox="0 0 32 32"
   version="1.1"
   id="svg1"
   sodipodi:docname="github32-white.svg"
   width="32"
   height="32"
   inkscape:version="1.3.2 (091e20e, 2023-11-25, custom)"
   xmlns:inkscape="http://www.inkscape.org/namespaces/inkscape"
   xmlns:sodipodi="http://sodipodi.sourceforge.net/DTD/sodipodi-0.dtd"
   xmlns="http://www.w3.org/2000/svg"
   xmlns:svg="http://www.w3.org/2000/svg">
  <defs
     id="defs1" />
  <sodipodi:namedview
     id="namedview1"
     pagecolor="#505050"
     bordercolor="#ffffff"
     borderopacity="1"
     inkscape:showpageshadow="0"
     inkscape:pageopacity="0"
     inkscape:pagecheckerboard="1"
     inkscape:deskcolor="#505050"
     inkscape:zoom="1.5878906"
     inkscape:cx="248.12793"
     inkscape:cy="247.18328"
     inkscape:window-width="1920"
     inkscape:window-height="1009"
     inkscape:window-x="-8"
     inkscape:window-y="1072"
     inkscape:window-maximized="1"
     inkscape:current-layer="svg1" />
  <!--!Font Awesome Free 6.5.1 by @fontawesome - https://fontawesome.com License - https://fontawesome.com/license/free Copyright 2024 Fonticons, Inc.-->
  <path
     d="m 10.703226,25.766353 c 0,0.132339 -0.148392,0.23821 -0.335485,0.23821 -0.212903,0.01985 -0.361289,-0.08602 -0.361289,-0.23821 0,-0.132339 0.148392,-0.23821 0.335483,-0.23821 0.193549,-0.01985 0.361291,0.08602 0.361291,0.23821 z M 8.6967741,25.468591 c -0.045157,0.132339 0.083876,0.284528 0.2774199,0.32423 0.1677423,0.06617 0.361291,0 0.4000008,-0.132339 0.038704,-0.132339 -0.083876,-0.284528 -0.2774199,-0.344081 -0.1677423,-0.04632 -0.3548394,0.01985 -0.4000008,0.15219 z m 2.8516129,-0.112488 c -0.187097,0.04632 -0.31613,0.17204 -0.296773,0.32423 0.01934,0.132339 0.187097,0.218359 0.380644,0.17204 0.187097,-0.04632 0.31613,-0.17204 0.296773,-0.304379 -0.01934,-0.125722 -0.193547,-0.211742 -0.380644,-0.191891 z M 15.793547,0 C 6.8451612,0 0,6.967635 0,16.145327 0,23.48351 4.5032258,29.762983 10.935484,31.97304 c 0.825806,0.15219 1.11613,-0.370548 1.11613,-0.800649 0,-0.41025 -0.01935,-2.673243 -0.01935,-4.0628 0,0 -4.5161287,0.992541 -5.4645159,-1.971847 0,0 -0.7354837,-1.925529 -1.7935483,-2.421799 0,0 -1.4774192,-1.038859 0.1032199,-1.019008 0,0 1.6064516,0.132339 2.4903224,1.70717 1.412903,2.554137 3.7806449,1.819657 4.7032259,1.38294 0.148392,-1.05871 0.567742,-1.79319 1.032259,-2.229908 -3.606452,-0.41025 -7.2451616,-0.946222 -7.2451616,-7.311716 0,-1.819658 0.490322,-2.732795 1.5225806,-3.897376 C 7.2128992,10.917946 6.6645125,9.144607 7.5483822,6.855147 8.8967739,6.425046 12,8.64172 12,8.64172 c 1.290324,-0.370549 2.677419,-0.56244 4.051612,-0.56244 1.374186,0 2.761291,0.191891 4.051613,0.56244 0,0 3.103226,-2.223291 4.451614,-1.786573 0.883869,2.296077 0.335488,4.062799 0.167737,4.4929 1.03226,1.171198 1.664516,2.084335 1.664516,3.897376 0,6.385344 -3.8,6.894849 -7.406452,7.311716 0.593552,0.522738 1.096776,1.515278 1.096776,3.070259 0,2.229907 -0.01934,4.98917 -0.01934,5.531759 0,0.430101 0.296768,0.952839 1.116135,0.800649 C 27.625806,29.762983 32,23.48351 32,16.145327 32,6.967635 24.741935,0 15.793547,0 Z M 6.2709676,22.821816 c -0.083876,0.06617 -0.064516,0.218359 0.045157,0.344081 0.1032199,0.105871 0.2516134,0.152189 0.335483,0.06617 0.083876,-0.06617 0.064516,-0.218359 -0.045157,-0.34408 -0.10322,-0.105871 -0.2516134,-0.15219 -0.3354846,-0.06617 z m -0.696774,-0.535972 c -0.045157,0.08602 0.019359,0.191891 0.1483919,0.258061 0.10322,0.06617 0.2322585,0.04632 0.2774199,-0.04632 0.045157,-0.08602 -0.019359,-0.191891 -0.1483919,-0.25806 -0.1290325,-0.0397 -0.2322585,-0.01985 -0.2774199,0.04632 z m 2.0903226,2.35563 c -0.10322,0.08602 -0.064516,0.284528 0.083876,0.41025 0.1483919,0.15219 0.3354845,0.17204 0.4193542,0.06617 0.083876,-0.08602 0.045157,-0.284528 -0.083876,-0.41025 -0.1419388,-0.152189 -0.3354845,-0.17204 -0.4193542,-0.06617 z m -0.7354838,-0.97269 c -0.10322,0.06617 -0.10322,0.23821 0,0.390399 0.1032199,0.15219 0.2774199,0.218359 0.361291,0.15219 0.10322,-0.08602 0.10322,-0.258061 0,-0.41025 -0.090329,-0.15219 -0.258065,-0.218359 -0.361291,-0.132339 z"
     id="path1"
     style="stroke-width:0.0653374;fill:#ffffff" />
</svg>
