<?xml version="1.0" encoding="UTF-8" standalone="no"?>
<svg
   viewBox="0 0 64 64.000001"
   version="1.1"
   id="svg1"
   width="64"
   height="64"
   xmlns="http://www.w3.org/2000/svg"
   xmlns:svg="http://www.w3.org/2000/svg">
  <defs
     id="defs1" />
  <g
     class=""
     transform="matrix(0.1347469,0,0,0.13396072,-2.5498366,-2.4904637)"
     id="g1">
    <path
       d="m 263.813,18.594 c -50.387,12.75 -80.69,66.325 -50.813,111.22 22.477,33.773 44.967,61.167 8.75,79.06 -23.353,11.54 -50.027,-16.454 -46.125,-49.28 C 180.437,119.109 156.92,79.667 129.5,71.406 175.737,177.826 86.04,248.404 104.97,148.5 74.684,164.595 72.186,207.517 93.72,271.22 53.348,254.02 38.65,204.453 55.438,150.656 19.572,179.006 2.138,281.56 40.812,334.126 136.425,464.08 248.156,496.343 268,496.343 c 21.144,0 117.334,-33.716 189.594,-115.125 41.782,-47.074 50.926,-168.9 9.22,-243.658 5.98,25.335 -6.117,76.786 -33.845,94.032 4.998,-57.774 -3.913,-140.944 -36.69,-171.53 32.622,172.802 -93.01,152.202 -48.374,99.53 29.51,-34.825 -0.17,-102.5 -17.5,-112.375 10.894,42.12 -14.24,69.676 -54.72,61.436 -27.252,-5.547 -44.743,-44.957 -11.873,-90.062 z m -115.157,211.47 h 18.688 V 395.25 L 270.064,451.063 372.78,395.25 V 230.094 h 18.69 v 176.28 l -4.908,2.657 -112.062,60.845 -4.438,2.438 -4.468,-2.438 -112.064,-60.846 -4.874,-2.655 V 230.062 Z m 37.53,0.217 73.533,44.532 V 423.126 L 186.186,381.688 V 230.28 Z m 167.72,0 v 151.407 l -75.5,42.563 V 276.03 l 75.5,-45.75 z"
       fill="#ffffff"
       fill-opacity="1"
       id="path1" />
  </g>
</svg>
